<mxfile host="app.diagrams.net" modified="2024-03-12T11:01:45.112Z" agent="Mozilla/5.0 (X11; Linux x86_64; rv:109.0) Gecko/20100101 Firefox/115.0" etag="fOYnt47a3gRGz-JVylcR" version="24.0.1" type="github">
  <diagram name="Page-1" id="Ge180f5atUwxBgDjg3q-">
    <mxGraphModel dx="1434" dy="791" grid="1" gridSize="10" guides="1" tooltips="1" connect="1" arrows="1" fold="1" page="1" pageScale="1" pageWidth="850" pageHeight="1100" math="0" shadow="0">
      <root>
        <mxCell id="0" />
        <mxCell id="1" parent="0" />
        <mxCell id="NPN9MgjMihThZ8xEaaSx-6" style="edgeStyle=orthogonalEdgeStyle;rounded=0;orthogonalLoop=1;jettySize=auto;html=1;" edge="1" parent="1" source="NPN9MgjMihThZ8xEaaSx-1" target="NPN9MgjMihThZ8xEaaSx-5">
          <mxGeometry relative="1" as="geometry" />
        </mxCell>
        <mxCell id="NPN9MgjMihThZ8xEaaSx-1" value="" style="ellipse;shape=doubleEllipse;html=1;dashed=0;whiteSpace=wrap;aspect=fixed;" vertex="1" parent="1">
          <mxGeometry x="190" y="290" width="60" height="60" as="geometry" />
        </mxCell>
        <mxCell id="NPN9MgjMihThZ8xEaaSx-14" style="edgeStyle=orthogonalEdgeStyle;rounded=0;orthogonalLoop=1;jettySize=auto;html=1;entryX=0.5;entryY=0;entryDx=0;entryDy=0;" edge="1" parent="1" source="NPN9MgjMihThZ8xEaaSx-2" target="NPN9MgjMihThZ8xEaaSx-13">
          <mxGeometry relative="1" as="geometry" />
        </mxCell>
        <mxCell id="NPN9MgjMihThZ8xEaaSx-2" value="Authentication" style="ellipse;whiteSpace=wrap;html=1;" vertex="1" parent="1">
          <mxGeometry x="145" y="530" width="150" height="80" as="geometry" />
        </mxCell>
        <mxCell id="NPN9MgjMihThZ8xEaaSx-7" style="edgeStyle=orthogonalEdgeStyle;rounded=0;orthogonalLoop=1;jettySize=auto;html=1;" edge="1" parent="1" source="NPN9MgjMihThZ8xEaaSx-5" target="NPN9MgjMihThZ8xEaaSx-2">
          <mxGeometry relative="1" as="geometry" />
        </mxCell>
        <mxCell id="NPN9MgjMihThZ8xEaaSx-9" style="edgeStyle=orthogonalEdgeStyle;rounded=0;orthogonalLoop=1;jettySize=auto;html=1;entryX=0;entryY=0.5;entryDx=0;entryDy=0;" edge="1" parent="1" source="NPN9MgjMihThZ8xEaaSx-5" target="NPN9MgjMihThZ8xEaaSx-8">
          <mxGeometry relative="1" as="geometry" />
        </mxCell>
        <mxCell id="NPN9MgjMihThZ8xEaaSx-5" value="" style="rhombus;whiteSpace=wrap;html=1;" vertex="1" parent="1">
          <mxGeometry x="190" y="400" width="60" height="50" as="geometry" />
        </mxCell>
        <mxCell id="NPN9MgjMihThZ8xEaaSx-8" value="Registration" style="ellipse;whiteSpace=wrap;html=1;" vertex="1" parent="1">
          <mxGeometry x="400" y="395" width="150" height="60" as="geometry" />
        </mxCell>
        <mxCell id="NPN9MgjMihThZ8xEaaSx-12" value="" style="curved=1;endArrow=classic;html=1;rounded=0;exitX=0.5;exitY=1;exitDx=0;exitDy=0;" edge="1" parent="1" source="NPN9MgjMihThZ8xEaaSx-8">
          <mxGeometry width="50" height="50" relative="1" as="geometry">
            <mxPoint x="480" y="690" as="sourcePoint" />
            <mxPoint x="220" y="490" as="targetPoint" />
            <Array as="points">
              <mxPoint x="460" y="490" />
              <mxPoint x="400" y="510" />
            </Array>
          </mxGeometry>
        </mxCell>
        <mxCell id="NPN9MgjMihThZ8xEaaSx-13" value="" style="rhombus;whiteSpace=wrap;html=1;" vertex="1" parent="1">
          <mxGeometry x="200" y="660" width="50" height="40" as="geometry" />
        </mxCell>
      </root>
    </mxGraphModel>
  </diagram>
</mxfile>
